<svg id="Layer_1" data-name="Layer 1" xmlns="http://www.w3.org/2000/svg" viewBox="0 0 96.63 88.2"><defs><style>.cls-1{font-size:10.56px;font-family:MyriadPro-Regular, Myriad Pro;}.cls-1,.cls-4{fill:#039;}.cls-2{fill:none;}.cls-3{fill:#6cc;}</style></defs><text class="cls-1" transform="translate(0 47.7) scale(1.01 1)">PT INDO KIMIA ABADI</text><polygon class="cls-2" points="47.61 11.16 21 37.98 75.55 37.98 47.61 11.16"/><polygon class="cls-2" points="48.38 77.03 73.59 51.62 21.91 51.62 48.38 77.03"/><polygon class="cls-3" points="48.53 88.13 54.11 82.54 48.57 88.17 48.53 88.13"/><polygon class="cls-4" points="54.1 82.52 48.51 88.15 48.57 88.2 54.15 82.58 54.1 82.52 54.1 82.52"/><polygon class="cls-3" points="13.33 51.6 16.07 51.64 45.54 79.89 44.21 81.19 13.33 51.6"/><path class="cls-4" d="M17.74,57.56,47.17,85.77,45.9,87.06,15.12,57.56h2.62m0-.05H15L45.9,87.13l1.34-1.36L17.76,57.51Z" transform="translate(-1.69 -5.9)"/><polygon class="cls-3" points="19.08 51.6 21.91 51.64 48.36 77.05 47.01 78.37 19.08 51.6"/><path class="cls-4" d="M23.58,57.56,50,82.93l-1.29,1.3L20.88,57.56h2.7m0-.05H20.75l28,26.79,1.36-1.37L23.6,57.51Z" transform="translate(-1.69 -5.9)"/><polygon class="cls-3" points="16.09 51.6 19.06 51.64 47 78.42 45.55 79.84 16.09 51.6"/><path class="cls-4" d="M20.73,57.56,48.63,84.3l-1.39,1.4L17.88,57.56h2.85m0-.05h-3L47.24,85.77,48.7,84.3,20.75,57.51Z" transform="translate(-1.69 -5.9)"/><polygon class="cls-3" points="10.49 51.6 13.31 51.64 44.19 81.25 42.79 82.62 10.49 51.6"/><path class="cls-4" d="M15,57.56,45.83,87.13l-1.35,1.35L12.28,57.56H15m0-.05H12.16l32.32,31,1.42-1.42L15,57.51Z" transform="translate(-1.69 -5.9)"/><path class="cls-3" d="M85.88,43.86l-32.38-31,1.4-1.37-.18-.17,33.9,32.58ZM49.14,5.92h0l-5.6,5.61Z" transform="translate(-1.69 -5.9)"/><path class="cls-4" d="M54.89,11.5,88.56,43.83H85.9l-32.34-31,1.33-1.34M49.13,5.9l-5.59,5.63,0,0,5.58-5.62,5.72,5.49-1.39,1.41,32.39,31h2.8L49.13,5.9Z" transform="translate(-1.69 -5.9)"/><polygon class="cls-3" points="75.55 37.96 47.63 11.14 49.01 9.78 78.38 37.96 75.55 37.96"/><path class="cls-4" d="M50.68,15.73,80,43.83H77.26L49.37,17.05l1.31-1.32m0-.07-1.38,1.4L77.24,43.88h2.89L50.68,15.66Z" transform="translate(-1.69 -5.9)"/><polygon class="cls-3" points="78.44 37.96 49.01 9.75 50.36 8.43 81.14 37.96 78.44 37.96"/><path class="cls-4" d="M52,14.38,82.77,43.83H80.15L50.76,15.66,52,14.38m0-.07-1.35,1.35L80.13,43.88h2.76L52,14.31Z" transform="translate(-1.69 -5.9)"/><polygon class="cls-3" points="81.2 37.96 50.36 8.39 51.82 6.96 84.13 37.96 81.2 37.96"/><path class="cls-4" d="M53.49,12.91,85.76,43.83H82.91L52.1,14.31l1.39-1.4m0-.07L52,14.31,82.89,43.88h3l-32.39-31Z" transform="translate(-1.69 -5.9)"/><polygon class="cls-4" points="9.63 37.79 42.03 5.5 47.77 10.99 20.9 37.79 9.63 37.79"/><path class="cls-4" d="M43.7,11.45l5.71,5.42L22.58,43.66H11.44L43.7,11.45m0-.07L11.32,43.71H22.6L49.48,16.87,43.7,11.38Z" transform="translate(-1.69 -5.9)"/><polygon class="cls-4" points="41.91 5.65 47.49 0.06 53.18 5.55 51.78 6.92 47.61 11.12 41.91 5.65"/><path class="cls-4" d="M49.16,6l5.65,5.42-1.32,1.34-.07-.07-.07.08.07.06L52,14.24,52,14.19l-.06.07.05.05-1.31,1.32h0L49.3,17l-5.65-5.43L49.16,6m0-.07-5.58,5.62,5.72,5.5,1.38-1.4,0,0,0,0L52,14.31l-.09-.09.09.09,1.46-1.47-.1-.1.1.1,1.39-1.41L49.16,5.94Z" transform="translate(-1.69 -5.9)"/><polygon class="cls-4" points="48.39 77.14 73.36 51.46 84.41 51.47 54.04 82.69 48.39 77.14"/><path class="cls-4" d="M86,57.39,55.73,88.55l-5.6-5.49L75.06,57.39H86m.12,0H75l-25,25.72,5.67,5.56L86.1,57.34Z" transform="translate(-1.69 -5.9)"/><rect class="cls-4" x="47.34" y="87.34" height="7.93" transform="translate(-52.99 56.31) rotate(-46.16)"/><polygon class="cls-4" points="42.79 82.66 42.79 82.66 48.51 88.15 48.51 88.15 42.79 82.66 42.79 82.66"/><polygon class="cls-4" points="42.81 82.64 44.23 81.25 44.57 81.61 44.23 81.21 45.57 79.89 45.85 80.19 45.57 79.86 47.03 78.42 48.39 77.05 54.08 82.54 48.51 88.11 42.81 82.64"/><path class="cls-4" d="M50.06,83l5.65,5.42L50.2,94l-5.65-5.43L45.9,87.2l.34.32.07-.07L46,87.13l1.27-1.29.28.27.07-.07-.28-.27,1.39-1.4.27.26.07-.07-.27-.26L50.06,83m0-.07L48.7,84.3l.3.29-.3-.29-1.46,1.47.32.3-.32-.3L45.9,87.13l.37.36-.37-.36-1.42,1.42,5.72,5.5,5.58-5.63-5.72-5.49Z" transform="translate(-1.69 -5.9)"/></svg>