<svg id="Layer_1" data-name="Layer 1" xmlns="http://www.w3.org/2000/svg" viewBox="0 0 100 100"><defs><style>.cls-1{font-size:10.56px;font-family:MyriadPro-Regular, Myriad Pro;}.cls-1,.cls-4{fill:#039;}.cls-2{fill:none;}.cls-3{fill:#6cc;}</style></defs><text class="cls-1" transform="translate(1.69 53.6) scale(1.01 1)">PT INDO KIMIA ABADI</text><polygon class="cls-2" points="49.3 17.05 22.68 43.88 77.24 43.88 49.3 17.05"/><polygon class="cls-2" points="50.06 82.93 75.28 57.51 23.6 57.51 50.06 82.93"/><polygon class="cls-3" points="50.22 94.03 55.8 88.44 50.26 94.07 50.22 94.03"/><polygon class="cls-4" points="55.78 88.42 50.2 94.05 50.26 94.1 55.84 88.47 55.78 88.42 55.78 88.42"/><polygon class="cls-3" points="15.02 57.5 17.76 57.54 47.23 85.79 45.9 87.09 15.02 57.5"/><path class="cls-4" d="M17.74,57.56,47.17,85.77,45.9,87.06,15.12,57.56h2.62m0-.05H15L45.9,87.13l1.34-1.36L17.76,57.51Z"/><polygon class="cls-3" points="20.77 57.5 23.6 57.54 50.05 82.94 48.7 84.27 20.77 57.5"/><path class="cls-4" d="M23.58,57.56,50,82.93l-1.29,1.3L20.88,57.56h2.7m0-.05H20.75l28,26.79,1.36-1.37L23.6,57.51Z"/><polygon class="cls-3" points="17.77 57.5 20.75 57.54 48.68 84.32 47.24 85.74 17.77 57.5"/><path class="cls-4" d="M20.73,57.56,48.63,84.3l-1.39,1.4L17.88,57.56h2.85m0-.05h-3L47.24,85.77,48.7,84.3,20.75,57.51Z"/><polygon class="cls-3" points="12.18 57.5 15 57.54 45.88 87.14 44.48 88.52 12.18 57.5"/><path class="cls-4" d="M15,57.56,45.83,87.13l-1.35,1.35L12.28,57.56H15m0-.05H12.16l32.32,31,1.42-1.42L15,57.51Z"/><path class="cls-3" d="M85.88,43.86l-32.38-31,1.4-1.37-.18-.17,33.9,32.58ZM49.14,5.92h0l-5.6,5.61Z"/><path class="cls-4" d="M54.89,11.5,88.56,43.83H85.9l-32.34-31,1.33-1.34M49.13,5.9l-5.59,5.63,0,0,5.58-5.62,5.72,5.49-1.39,1.41,32.39,31h2.8L49.13,5.9Z"/><polygon class="cls-3" points="77.24 43.86 49.32 17.04 50.7 15.68 80.07 43.86 77.24 43.86"/><path class="cls-4" d="M50.68,15.73,80,43.83H77.26L49.37,17.05l1.31-1.32m0-.07-1.38,1.4L77.24,43.88h2.89L50.68,15.66Z"/><polygon class="cls-3" points="80.13 43.86 50.7 15.64 52.05 14.32 82.83 43.86 80.13 43.86"/><path class="cls-4" d="M52,14.38,82.77,43.83H80.15L50.76,15.66,52,14.38m0-.07-1.35,1.35L80.13,43.88h2.76L52,14.31Z"/><polygon class="cls-3" points="82.89 43.86 52.05 14.29 53.51 12.85 85.82 43.86 82.89 43.86"/><path class="cls-4" d="M53.49,12.91,85.76,43.83H82.91L52.1,14.31l1.39-1.4m0-.07L52,14.31,82.89,43.88h3l-32.39-31Z"/><polygon class="cls-4" points="11.32 43.68 43.72 11.4 49.46 16.89 22.59 43.68 11.32 43.68"/><path class="cls-4" d="M43.7,11.45l5.71,5.42L22.58,43.66H11.44L43.7,11.45m0-.07L11.32,43.71H22.6L49.48,16.87,43.7,11.38Z"/><polygon class="cls-4" points="43.6 11.54 49.18 5.96 54.86 11.45 53.47 12.82 49.3 17.02 43.6 11.54"/><path class="cls-4" d="M49.16,6l5.65,5.42-1.32,1.34-.07-.07-.07.08.07.06L52,14.24,52,14.19l-.06.07.05.05-1.31,1.32h0L49.3,17l-5.65-5.43L49.16,6m0-.07-5.58,5.62,5.72,5.5,1.38-1.4,0,0,0,0L52,14.31l-.09-.09.09.09,1.46-1.47-.1-.1.1.1,1.39-1.41L49.16,5.94Z"/><polygon class="cls-4" points="50.08 83.04 75.05 57.36 86.1 57.37 55.73 88.59 50.08 83.04"/><path class="cls-4" d="M86,57.39,55.73,88.55l-5.6-5.49L75.06,57.39H86m.12,0H75l-25,25.72,5.67,5.56L86.1,57.34Z"/><rect class="cls-4" x="47.34" y="87.34" height="7.93" transform="translate(-51.3 62.2) rotate(-46.16)"/><polygon class="cls-4" points="44.48 88.56 44.48 88.56 50.2 94.05 50.2 94.05 44.48 88.56 44.48 88.56"/><polygon class="cls-4" points="44.5 88.54 45.91 87.14 46.25 87.5 45.91 87.11 47.26 85.79 47.54 86.09 47.26 85.75 48.72 84.32 50.08 82.94 55.77 88.44 50.2 94.01 44.5 88.54"/><path class="cls-4" d="M50.06,83l5.65,5.42L50.2,94l-5.65-5.43L45.9,87.2l.34.32.07-.07L46,87.13l1.27-1.29.28.27.07-.07-.28-.27,1.39-1.4.27.26.07-.07-.27-.26L50.06,83m0-.07L48.7,84.3l.3.29-.3-.29-1.46,1.47.32.3-.32-.3L45.9,87.13l.37.36-.37-.36-1.42,1.42,5.72,5.5,5.58-5.63-5.72-5.49Z"/></svg>