<svg id="Layer_1" data-name="Layer 1" xmlns="http://www.w3.org/2000/svg" viewBox="0 0 95.5 87.18"><defs><style>.cls-1{font-size:10.44px;font-family:MyriadPro-Regular, Myriad Pro;}.cls-1,.cls-4{fill:#039;}.cls-2{fill:none;}.cls-3{fill:#6cc;}</style></defs><text class="cls-1" transform="translate(0 47.47) scale(1.01 1)">PT INDO KIMIA ABADI</text><polygon class="cls-2" points="48.54 11.03 22.23 37.54 76.15 37.54 48.54 11.03"/><polygon class="cls-2" points="49.29 76.13 74.21 51.02 23.14 51.02 49.29 76.13"/><polygon class="cls-3" points="49.45 87.11 54.96 81.58 49.48 87.14 49.45 87.11"/><polygon class="cls-4" points="54.95 81.56 49.43 87.13 49.48 87.18 55 81.62 54.95 81.56 54.95 81.56"/><polygon class="cls-3" points="14.65 51 17.36 51.04 46.49 78.96 45.17 80.25 14.65 51"/><path class="cls-4" d="M19.59,57.48,48.68,85.36l-1.26,1.27L17,57.48h2.58m0,0H16.88L47.42,86.7l1.33-1.34L19.61,57.43Z" transform="translate(-2.25 -6.41)"/><polygon class="cls-3" points="20.34 51 23.14 51.04 49.27 76.15 47.95 77.46 20.34 51"/><path class="cls-4" d="M25.37,57.48l26.1,25.07-1.28,1.28L22.69,57.48h2.68m0,0H22.57L50.19,83.9l1.35-1.36L25.39,57.43Z" transform="translate(-2.25 -6.41)"/><polygon class="cls-3" points="17.38 51 20.32 51.04 47.93 77.51 46.5 78.91 17.38 51"/><path class="cls-4" d="M22.55,57.48,50.12,83.9l-1.37,1.39-29-27.81h2.82m0,0h-3L48.75,85.36l1.44-1.46L22.57,57.43Z" transform="translate(-2.25 -6.41)"/><polygon class="cls-3" points="11.85 51 14.63 51.04 45.16 80.3 43.77 81.66 11.85 51"/><path class="cls-4" d="M16.86,57.48,47.35,86.7,46,88,14.2,57.48h2.66m0,0h-2.8L46,88.11l1.4-1.41L16.88,57.43Z" transform="translate(-2.25 -6.41)"/><path class="cls-3" d="M86.94,43.93l-32-30.68,1.38-1.35-.15-.15L89.65,43.93ZM50.63,6.43l0,0L45.12,12Z" transform="translate(-2.25 -6.41)"/><path class="cls-4" d="M56.31,12l33.27,32H87L55,13.27,56.31,12M50.62,6.41,45.1,12l0,0,5.52-5.56,5.65,5.43-1.37,1.39L86.94,44h2.77L50.62,6.41Z" transform="translate(-2.25 -6.41)"/><polygon class="cls-3" points="76.15 37.52 48.56 11.01 49.92 9.67 78.95 37.52 76.15 37.52"/><path class="cls-4" d="M52.16,16.13l29,27.77H78.42L50.86,17.44l1.3-1.31m0-.07-1.36,1.38L78.4,44h2.86L52.15,16.06Z" transform="translate(-2.25 -6.41)"/><polygon class="cls-3" points="79.01 37.52 49.92 9.63 51.25 8.33 81.67 37.52 79.01 37.52"/><path class="cls-4" d="M53.48,14.79,83.86,43.9H81.28L52.23,16.06l1.25-1.27m0-.07-1.33,1.34L81.26,44H84L53.48,14.72Z" transform="translate(-2.25 -6.41)"/><polygon class="cls-3" points="81.74 37.52 51.25 8.29 52.69 6.88 84.63 37.52 81.74 37.52"/><path class="cls-4" d="M54.93,13.34,86.82,43.9H84L53.55,14.72l1.38-1.38m0-.07-1.45,1.45L84,44h3l-32-30.68Z" transform="translate(-2.25 -6.41)"/><polygon class="cls-4" points="11 37.35 43.02 5.43 48.7 10.87 22.14 37.35 11 37.35"/><path class="cls-4" d="M45.26,11.9l5.63,5.36L24.38,43.73h-11L45.26,11.9m0-.07-32,32H24.4L51,17.26l-5.71-5.43Z" transform="translate(-2.25 -6.41)"/><polygon class="cls-4" points="42.9 5.58 48.42 0.06 54.04 5.49 52.66 6.84 48.54 10.99 42.9 5.58"/><path class="cls-4" d="M50.65,6.52l5.58,5.36L54.92,13.2l-.06-.06-.07.07.06.06-1.37,1.38,0-.05-.07.07,0,.05L52.12,16h0l-1.33,1.34L45.21,12l5.44-5.49m0-.07L45.13,12l5.66,5.43,1.36-1.38,0,0,0,0,1.33-1.34-.08-.08.08.08,1.45-1.45-.1-.1.1.1,1.37-1.39L50.65,6.45Z" transform="translate(-2.25 -6.41)"/><polygon class="cls-4" points="49.31 76.25 73.99 50.86 84.91 50.87 54.89 81.73 49.31 76.25"/><path class="cls-4" d="M87,57.3,57.14,88.1l-5.53-5.42L76.24,57.3H87m.12,0H76.22L51.54,82.68l5.6,5.49,30-30.92Z" transform="translate(-2.25 -6.41)"/><rect class="cls-4" x="48.85" y="86.9" height="7.84" transform="translate(-52.74 56.73) rotate(-46.16)"/><polygon class="cls-4" points="43.77 81.7 43.77 81.7 49.43 87.13 49.43 87.13 43.77 81.7 43.77 81.7"/><polygon class="cls-4" points="43.79 81.68 45.19 80.3 45.53 80.66 45.19 80.27 46.52 78.96 46.8 79.26 46.52 78.93 47.96 77.51 49.31 76.15 54.93 81.58 49.43 87.09 43.79 81.68"/><path class="cls-4" d="M51.54,82.61,57.12,88l-5.44,5.5-5.59-5.36,1.33-1.34.34.32.07-.08-.34-.32,1.26-1.26.28.26.07-.07-.28-.26L50.2,84l.26.26.07-.08-.26-.25,1.27-1.29m0-.07L50.19,83.9l.3.29-.3-.29-1.44,1.46.31.29-.31-.29L47.42,86.7l.37.35-.37-.35L46,88.11l5.66,5.43L57.19,88l-5.65-5.43Z" transform="translate(-2.25 -6.41)"/></svg>