<svg id="Layer_1" data-name="Layer 1" xmlns="http://www.w3.org/2000/svg" viewBox="0 0 166 166"><defs><style>.cls-1{fill:#039;}.cls-2{fill:none;}.cls-3{fill:#6cc;}</style></defs><path class="cls-1" d="M5.45,77.93a18.12,18.12,0,0,1,2.92-.22,4.9,4.9,0,0,1,3.31,1,3.11,3.11,0,0,1,1,2.43,3.4,3.4,0,0,1-.91,2.48,4.9,4.9,0,0,1-3.6,1.28A5.11,5.11,0,0,1,7,84.76v4.66H5.45ZM7,83.54a5.54,5.54,0,0,0,1.26.12c1.84,0,3-.88,3-2.48s-1.1-2.28-2.78-2.28A6.5,6.5,0,0,0,7,79Z"/><path class="cls-1" d="M17,79.07H13.41V77.8h8.72v1.27h-3.6V89.42H17Z"/><path class="cls-1" d="M28.67,77.8V89.42H27.15V77.8Z"/><path class="cls-1" d="M31.33,89.42V77.8H33l3.77,5.88a31.83,31.83,0,0,1,2.12,3.77h0c-.14-1.56-.17-3-.17-4.78V77.8h1.43V89.42H38.63l-3.74-5.9a35.81,35.81,0,0,1-2.2-3.88l0,0c.08,1.46.12,2.86.12,4.79v5Z"/><path class="cls-1" d="M42.83,78a21.75,21.75,0,0,1,3.23-.24,6.83,6.83,0,0,1,4.78,1.45,5.31,5.31,0,0,1,1.66,4.17,6.11,6.11,0,0,1-1.7,4.52,7.3,7.3,0,0,1-5.21,1.67,24,24,0,0,1-2.76-.14Zm1.52,10.28a9.66,9.66,0,0,0,1.54.08c3.25,0,5-1.79,5-4.93,0-2.74-1.56-4.48-4.78-4.48a8.43,8.43,0,0,0-1.78.16Z"/><path class="cls-1" d="M64.54,83.49c0,4-2.46,6.12-5.47,6.12s-5.3-2.38-5.3-5.9c0-3.69,2.33-6.1,5.47-6.1S64.54,80,64.54,83.49Zm-9.14.19c0,2.48,1.36,4.7,3.76,4.7s3.77-2.19,3.77-4.82c0-2.31-1.22-4.73-3.76-4.73S55.4,81.12,55.4,83.68Z"/><path class="cls-1" d="M70.22,77.8h1.52v5.6h.05c.32-.45.63-.86.93-1.24l3.6-4.36h1.89L74,82.73l4.59,6.69h-1.8l-3.88-5.71L71.74,85v4.43H70.22Z"/><path class="cls-1" d="M81.22,77.8V89.42H79.7V77.8Z"/><path class="cls-1" d="M93.81,84.31c-.09-1.62-.2-3.56-.18-5h0c-.4,1.36-.89,2.81-1.49,4.41L90,89.35H88.86L87,83.81c-.56-1.63-1-3.13-1.36-4.51h0c0,1.45-.12,3.39-.22,5.14l-.32,5H83.56l.82-11.62h1.94l2,5.62c.49,1.43.89,2.7,1.19,3.91h0c.3-1.17.72-2.45,1.25-3.91l2.09-5.62h2l.73,11.62H94.1Z"/><path class="cls-1" d="M99.45,77.8V89.42H97.93V77.8Z"/><path class="cls-1" d="M104,85.76l-1.22,3.66h-1.57l4-11.62h1.84l4,11.62h-1.63l-1.26-3.66Zm3.87-1.17-1.16-3.34c-.26-.76-.43-1.45-.61-2.13h0c-.18.69-.37,1.4-.6,2.11l-1.15,3.36Z"/><path class="cls-1" d="M118.42,85.76l-1.23,3.66h-1.57l4-11.62h1.84l4,11.62h-1.62l-1.26-3.66Zm3.86-1.17-1.15-3.34c-.26-.76-.44-1.45-.61-2.13h0c-.17.69-.36,1.4-.59,2.11l-1.16,3.36Z"/><path class="cls-1" d="M127.21,78a14.8,14.8,0,0,1,2.78-.24,4.93,4.93,0,0,1,3.24.85,2.41,2.41,0,0,1,1,2,2.77,2.77,0,0,1-2,2.55v0a3,3,0,0,1,2.43,2.92,3.13,3.13,0,0,1-1,2.33c-.83.74-2.15,1.08-4.08,1.08a17.78,17.78,0,0,1-2.36-.14Zm1.52,4.76h1.38c1.61,0,2.56-.83,2.56-1.95,0-1.36-1-1.89-2.59-1.89a6.92,6.92,0,0,0-1.35.1Zm0,5.57a8.54,8.54,0,0,0,1.28.07c1.57,0,3-.57,3-2.26s-1.38-2.24-3-2.24h-1.26Z"/><path class="cls-1" d="M138.59,85.76l-1.22,3.66h-1.58l4-11.62h1.83l4,11.62H144l-1.26-3.66Zm3.87-1.17-1.16-3.34c-.26-.76-.43-1.45-.61-2.13h0c-.18.69-.37,1.4-.6,2.11l-1.15,3.36Z"/><path class="cls-1" d="M147.38,78a21.89,21.89,0,0,1,3.24-.24,6.78,6.78,0,0,1,4.77,1.45,5.31,5.31,0,0,1,1.66,4.17,6.1,6.1,0,0,1-1.69,4.52,7.3,7.3,0,0,1-5.21,1.67,24,24,0,0,1-2.77-.14Zm1.53,10.28a9.59,9.59,0,0,0,1.53.08c3.26,0,5-1.79,5-4.93,0-2.74-1.55-4.48-4.77-4.48a8.35,8.35,0,0,0-1.78.16Z"/><path class="cls-1" d="M160.55,77.8V89.42H159V77.8Z"/><polygon class="cls-2" points="84.3 29.21 40.85 73.01 129.91 73.01 84.3 29.21"/><polygon class="cls-2" points="85.55 136.76 126.71 95.27 42.34 95.27 85.55 136.76"/><polygon class="cls-3" points="85.81 154.88 94.92 145.76 94.94 145.85 85.86 154.93 85.81 154.88"/><polygon class="cls-1" points="94.89 145.73 85.77 154.91 85.86 155 94.98 145.81 94.89 145.73 94.89 145.73"/><polygon class="cls-3" points="28.33 95.23 32.8 95.32 80.91 141.44 78.74 143.55 28.33 95.23"/><path class="cls-1" d="M32.76,95.37l48,46-2.06,2.08L28.55,95.37h4.21m0-.1H28.3l50.44,48.35,2.2-2.22L32.8,95.27Z"/><polygon class="cls-3" points="37.72 95.23 42.34 95.32 85.51 136.79 83.32 138.93 37.72 95.23"/><path class="cls-1" d="M42.3,95.37l43.1,41.39-2.08,2.1L37.94,95.37H42.3m0-.1H37.69L83.32,139l2.23-2.24L42.34,95.27Z"/><polygon class="cls-3" points="32.84 95.23 37.69 95.32 83.29 139.04 80.94 141.33 32.84 95.23"/><path class="cls-1" d="M37.65,95.37,83.18,139l-2.24,2.26L33.05,95.37h4.6m0-.1H32.8L80.94,141.4l2.38-2.4L37.69,95.27Z"/><polygon class="cls-3" points="23.7 95.23 28.3 95.32 78.71 143.65 76.43 145.88 23.7 95.23"/><path class="cls-1" d="M28.26,95.37,78.6,143.62l-2.17,2.19L23.91,95.37h4.35m0-.1H23.66L76.43,146l2.31-2.33L28.3,95.27Z"/><path class="cls-3" d="M144,73,91.17,22.29l2.28-2.22,55,52.89ZM84.05,11l0,0-9.15,9.15Z"/><path class="cls-1" d="M93.42,20.17l54.93,52.74h-4.28L91.28,22.32l2.14-2.15M84,11,74.9,20.19l.06,0,9.12-9.18,9.33,9-2.27,2.29L144,73h4.56L84,11Z"/><polygon class="cls-3" points="129.91 72.96 84.34 29.18 86.59 26.97 134.51 72.96 129.91 72.96"/><path class="cls-1" d="M86.56,27.08l47.83,45.83H130l-45.5-43.7,2.11-2.13m0-.14L84.3,29.21,129.91,73h4.73L86.56,26.94Z"/><polygon class="cls-3" points="134.64 72.96 86.59 26.9 88.79 24.76 139.02 72.96 134.64 72.96"/><path class="cls-1" d="M88.76,24.87l50.13,48h-4.21l-48-46,2.06-2.07m0-.14-2.2,2.21L134.64,73h4.5L88.76,24.73Z"/><polygon class="cls-3" points="139.14 72.96 88.79 24.69 91.17 22.36 143.9 72.96 139.14 72.96"/><path class="cls-1" d="M91.14,22.46l52.64,50.45h-4.6L88.9,24.72l2.24-2.26m0-.14-2.38,2.41L139.14,73H144L91.14,22.32Z"/><polygon class="cls-1" points="22.29 72.68 75.2 19.98 84.56 28.95 40.69 72.68 22.29 72.68"/><path class="cls-1" d="M75.16,20.09l9.29,8.83L40.67,72.63H22.54L75.16,20.09m0-.14L22.29,72.73H40.71L84.59,28.92l-9.43-9Z"/><polygon class="cls-1" points="75 20.21 84.11 11.1 93.38 20.07 91.1 22.29 84.3 29.14 75 20.21"/><path class="cls-1" d="M84.08,11.2,93.27,20l-2.13,2.15L91,22.1l-.14.14.09.09-2.24,2.26-.07-.08-.14.15.07.07-2.12,2.14,0,0,0,0-2.19,2.2-9.19-8.83,9-9m0-.14L75,20.24l9.34,9,2.26-2.27,0-.05,0,.05,2.2-2.21-.15-.14.15.14,2.38-2.41L91,22.17l.17.15L93.41,20l-9.33-9Z"/><polygon class="cls-1" points="85.58 136.94 126.35 95.02 144.38 95.03 94.8 145.98 85.58 136.94"/><path class="cls-1" d="M144.14,95.08,94.8,145.91,85.69,137l40.67-41.9h17.78m.24-.1H126.32L85.55,137l9.25,9.07L144.38,95Z"/><rect class="cls-1" x="81.1" y="143.96" height="12.95" transform="translate(-83.58 104.73) rotate(-46.16)"/><polygon class="cls-1" points="76.43 145.95 76.43 145.95 85.77 154.92 85.77 154.91 76.43 145.95 76.43 145.95"/><polygon class="cls-1" points="76.47 145.91 78.78 143.65 79.32 144.24 78.78 143.58 80.98 141.44 81.42 141.93 80.97 141.37 83.36 139.04 85.58 136.79 94.85 145.76 85.77 154.84 76.47 145.91"/><path class="cls-1" d="M85.55,136.9l9.19,8.83-9,9-9.2-8.83,2.18-2.18.54.51.14-.14-.54-.52,2-2.07.44.43.14-.15-.44-.42,2.24-2.26.43.41.14-.15-.43-.4,2.09-2.1m0-.14L83.32,139l.5.48-.5-.48-2.38,2.4.51.5-.51-.5-2.2,2.22.62.58-.62-.58L76.43,146l9.34,9,9.12-9.18-9.34-9Z"/></svg>