<svg id="Layer_1" data-name="Layer 1" xmlns="http://www.w3.org/2000/svg" viewBox="0 0 100 100"><defs><style>.cls-1{fill:#039;}.cls-2{fill:none;}.cls-3{fill:#6cc;}</style></defs><path class="cls-1" d="M3.05,46.93a11.38,11.38,0,0,1,1.77-.13,3,3,0,0,1,2,.58,1.87,1.87,0,0,1,.63,1.47,2.07,2.07,0,0,1-.55,1.51,3,3,0,0,1-2.18.77A3.31,3.31,0,0,1,4,51.07v2.81H3.05ZM4,50.33a3.22,3.22,0,0,0,.76.07c1.11,0,1.79-.53,1.79-1.5s-.67-1.38-1.69-1.38a4,4,0,0,0-.86.07Z"/><path class="cls-1" d="M10,47.62H7.87v-.77h5.28v.77H11v6.26H10Z"/><path class="cls-1" d="M17.11,46.85v7h-.92v-7Z"/><path class="cls-1" d="M18.72,53.88v-7h1L22,50.41a18.79,18.79,0,0,1,1.28,2.29l0,0c-.08-.93-.1-1.79-.1-2.89V46.85h.87v7h-.94l-2.26-3.56A22.85,22.85,0,0,1,19.54,48h0c0,.88.08,1.73.08,2.9v3Z"/><path class="cls-1" d="M25.68,46.94a14,14,0,0,1,2-.14,4.14,4.14,0,0,1,2.89.87,3.22,3.22,0,0,1,1,2.53,3.66,3.66,0,0,1-1,2.73,4.44,4.44,0,0,1-3.16,1,13.32,13.32,0,0,1-1.67-.09Zm.92,6.23a6.11,6.11,0,0,0,.93,0,2.73,2.73,0,0,0,3-3c0-1.66-.94-2.71-2.89-2.71a5.64,5.64,0,0,0-1.08.09Z"/><path class="cls-1" d="M38.83,50.29c0,2.43-1.5,3.71-3.32,3.71s-3.2-1.44-3.2-3.57,1.4-3.69,3.31-3.69S38.83,48.21,38.83,50.29Zm-5.54.12c0,1.5.83,2.85,2.28,2.85s2.28-1.33,2.28-2.92c0-1.4-.74-2.86-2.27-2.86S33.29,48.86,33.29,50.41Z"/><path class="cls-1" d="M42.26,46.85h.93v3.39h0c.19-.27.38-.52.56-.75L46,46.85H47.1l-2.58,3,2.78,4.05H46.21l-2.35-3.45-.67.77v2.68h-.93Z"/><path class="cls-1" d="M48.92,46.85v7H48v-7Z"/><path class="cls-1" d="M56.54,50.79c0-1-.11-2.16-.1-3h0c-.25.82-.54,1.7-.9,2.67l-1.26,3.41h-.7l-1.16-3.35c-.34-1-.62-1.9-.82-2.73h0c0,.87-.08,2.05-.14,3.11l-.19,3h-.88l.5-7H52l1.22,3.4c.3.87.54,1.64.72,2.37h0c.18-.71.44-1.48.75-2.37L56,46.85h1.18l.44,7h-.9Z"/><path class="cls-1" d="M60,46.85v7H59v-7Z"/><path class="cls-1" d="M62.72,51.67,62,53.88H61l2.42-7h1.11l2.44,7H66l-.77-2.21ZM65.06,51l-.7-2c-.16-.46-.26-.88-.37-1.29h0c-.1.42-.22.85-.36,1.28l-.7,2Z"/><path class="cls-1" d="M71.44,51.67l-.74,2.21h-1l2.42-7h1.12l2.43,7h-1L74,51.67ZM73.78,51l-.7-2c-.16-.46-.26-.88-.37-1.29h0c-.1.42-.22.85-.36,1.28l-.7,2Z"/><path class="cls-1" d="M76.76,46.94a9.55,9.55,0,0,1,1.69-.14,3,3,0,0,1,2,.51A1.47,1.47,0,0,1,81,48.55a1.69,1.69,0,0,1-1.21,1.55v0a1.82,1.82,0,0,1,1.48,1.76,1.88,1.88,0,0,1-.61,1.41,3.62,3.62,0,0,1-2.47.66,9.52,9.52,0,0,1-1.43-.09Zm.93,2.88h.83c1,0,1.55-.5,1.55-1.17,0-.83-.64-1.15-1.57-1.15a4.07,4.07,0,0,0-.81.06Zm0,3.38a5.15,5.15,0,0,0,.77,0c1,0,1.83-.35,1.83-1.37s-.84-1.36-1.84-1.36h-.76Z"/><path class="cls-1" d="M83.66,51.67l-.75,2.21H82l2.43-7H85.5l2.43,7H87l-.76-2.21ZM86,51l-.7-2c-.16-.46-.27-.88-.37-1.29h0c-.11.42-.23.85-.37,1.28l-.69,2Z"/><path class="cls-1" d="M89,46.94a14,14,0,0,1,2-.14,4.16,4.16,0,0,1,2.89.87,3.25,3.25,0,0,1,1,2.53,3.69,3.69,0,0,1-1,2.73,4.44,4.44,0,0,1-3.16,1A13.21,13.21,0,0,1,89,53.86Zm.92,6.23a6.11,6.11,0,0,0,.93,0,2.73,2.73,0,0,0,3-3c0-1.66-.94-2.71-2.89-2.71a5.48,5.48,0,0,0-1.08.09Z"/><path class="cls-1" d="M97,46.85v7H96v-7Z"/><polygon class="cls-2" points="50.79 17.44 24.48 43.95 78.4 43.95 50.79 17.44"/><polygon class="cls-2" points="51.54 82.55 76.46 57.43 25.39 57.43 51.54 82.55"/><polygon class="cls-3" points="51.69 93.52 57.21 87.99 51.73 93.55 51.69 93.52"/><polygon class="cls-1" points="57.2 87.97 51.68 93.54 51.73 93.59 57.25 88.03 57.2 87.97 57.2 87.97"/><polygon class="cls-3" points="16.9 57.41 19.61 57.45 48.73 85.37 47.42 86.66 16.9 57.41"/><path class="cls-1" d="M19.59,57.48,48.68,85.36l-1.26,1.27L17,57.48h2.58m0,0H16.88L47.42,86.7l1.33-1.34L19.61,57.43Z"/><polygon class="cls-3" points="22.59 57.41 25.39 57.45 51.52 82.56 50.19 83.87 22.59 57.41"/><path class="cls-1" d="M25.37,57.48l26.1,25.07-1.28,1.28L22.69,57.48h2.68m0,0H22.57L50.19,83.9l1.35-1.36L25.39,57.43Z"/><polygon class="cls-3" points="19.63 57.41 22.57 57.45 50.18 83.92 48.75 85.32 19.63 57.41"/><path class="cls-1" d="M22.55,57.48,50.12,83.9l-1.37,1.39-29-27.81h2.82m0,0h-3L48.75,85.36l1.44-1.46L22.57,57.43Z"/><polygon class="cls-3" points="14.1 57.41 16.88 57.45 47.41 86.71 46.02 88.07 14.1 57.41"/><path class="cls-1" d="M16.86,57.48,47.35,86.7,46,88,14.2,57.48h2.66m0,0h-2.8L46,88.11l1.4-1.41L16.88,57.43Z"/><path class="cls-3" d="M86.94,43.93l-32-30.68,1.38-1.35-.15-.15L89.65,43.93ZM50.63,6.43l0,0L45.12,12Z"/><path class="cls-1" d="M56.31,12l33.27,32H87L55,13.27,56.31,12M50.62,6.41,45.1,12l0,0,5.52-5.56,5.65,5.43-1.37,1.39L86.94,44h2.77L50.62,6.41Z"/><polygon class="cls-3" points="78.4 43.93 50.8 17.42 52.17 16.08 81.2 43.93 78.4 43.93"/><path class="cls-1" d="M52.16,16.13l29,27.77H78.42L50.86,17.44l1.3-1.31m0-.07-1.36,1.38L78.4,44h2.86L52.15,16.06Z"/><polygon class="cls-3" points="81.26 43.93 52.17 16.04 53.5 14.74 83.92 43.93 81.26 43.93"/><path class="cls-1" d="M53.48,14.79,83.86,43.9H81.28L52.23,16.06l1.25-1.27m0-.07-1.33,1.34L81.26,44H84L53.48,14.72Z"/><polygon class="cls-3" points="83.98 43.93 53.5 14.7 54.94 13.29 86.88 43.93 83.98 43.93"/><path class="cls-1" d="M54.93,13.34,86.82,43.9H84L53.55,14.72l1.38-1.38m0-.07-1.45,1.45L84,44h3l-32-30.68Z"/><polygon class="cls-1" points="13.25 43.76 45.27 11.85 50.95 17.28 24.39 43.76 13.25 43.76"/><path class="cls-1" d="M45.26,11.9l5.63,5.36L24.38,43.73h-11L45.26,11.9m0-.07-32,32H24.4L51,17.26l-5.71-5.43Z"/><polygon class="cls-1" points="45.15 11.99 50.67 6.47 56.29 11.9 54.91 13.25 50.79 17.4 45.15 11.99"/><path class="cls-1" d="M50.65,6.52l5.58,5.36L54.92,13.2l-.06-.06-.07.07.06.06-1.37,1.38,0-.05-.07.07,0,.05L52.12,16h0l-1.33,1.34L45.21,12l5.44-5.49m0-.07L45.13,12l5.66,5.43,1.36-1.38,0,0,0,0,1.33-1.34-.08-.08.08.08,1.45-1.45-.1-.1.1.1,1.37-1.39L50.65,6.45Z"/><polygon class="cls-1" points="51.56 82.66 76.24 57.27 87.16 57.28 57.14 88.14 51.56 82.66"/><path class="cls-1" d="M87,57.3,57.14,88.1l-5.53-5.42L76.24,57.3H87m.12,0H76.22L51.54,82.68l5.6,5.49,30-30.92Z"/><rect class="cls-1" x="48.85" y="86.9" height="7.84" transform="translate(-50.49 63.15) rotate(-46.16)"/><polygon class="cls-1" points="46.02 88.11 46.02 88.11 51.67 93.54 51.68 93.54 46.02 88.11 46.02 88.11"/><polygon class="cls-1" points="46.04 88.09 47.44 86.71 47.78 87.07 47.44 86.68 48.77 85.37 49.05 85.67 48.77 85.34 50.21 83.92 51.56 82.56 57.18 87.99 51.68 93.5 46.04 88.09"/><path class="cls-1" d="M51.54,82.61,57.12,88l-5.44,5.5-5.59-5.36,1.33-1.34.34.32.07-.08-.34-.32,1.26-1.26.28.26.07-.07-.28-.26L50.2,84l.26.26.07-.08-.26-.25,1.27-1.29m0-.07L50.19,83.9l.3.29-.3-.29-1.44,1.46.31.29-.31-.29L47.42,86.7l.37.35-.37-.35L46,88.11l5.66,5.43L57.19,88l-5.65-5.43Z"/></svg>