<svg id="Layer_1" data-name="Layer 1" xmlns="http://www.w3.org/2000/svg" viewBox="0 0 500 500"><defs><style>.cls-1{fill:#039;}.cls-2{fill:none;}.cls-3{fill:#6cc;}</style></defs><path class="cls-1" d="M9.26,234.27a56.19,56.19,0,0,1,9.07-.69c4.66,0,8.08,1.07,10.25,3a9.62,9.62,0,0,1,3.21,7.54A10.51,10.51,0,0,1,29,251.83c-2.49,2.62-6.56,4-11.18,4a16.38,16.38,0,0,1-3.8-.32v14.45H9.26ZM14,251.67a16,16,0,0,0,3.91.37c5.7,0,9.17-2.72,9.17-7.7,0-4.77-3.42-7.07-8.63-7.07a19.69,19.69,0,0,0-4.45.38Z"/><path class="cls-1" d="M45.08,237.81H34v-4H61v4H49.86v32.11H45.08Z"/><path class="cls-1" d="M81.33,233.85v36.07H76.61V233.85Z"/><path class="cls-1" d="M89.58,269.92V233.85h5.16l11.72,18.25A103.2,103.2,0,0,1,113,263.82l.11-.05c-.44-4.82-.55-9.21-.55-14.83V233.85H117v36.07h-4.77l-11.62-18.3a115.46,115.46,0,0,1-6.84-12.05l-.16.06c.27,4.55.38,8.88.38,14.88v15.41Z"/><path class="cls-1" d="M125.29,234.33a68.39,68.39,0,0,1,10-.75c6.78,0,11.62,1.55,14.82,4.49s5.15,7.12,5.15,13-1.84,10.7-5.26,14-9.06,5.2-16.17,5.2a79.18,79.18,0,0,1-8.58-.43Zm4.72,31.9a30.76,30.76,0,0,0,4.78.27c10.09,0,15.57-5.57,15.57-15.31.06-8.51-4.83-13.92-14.81-13.92a27.79,27.79,0,0,0-5.54.48Z"/><path class="cls-1" d="M192.7,251.51c0,12.42-7.66,19-17,19-9.66,0-16.45-7.38-16.45-18.3,0-11.46,7.22-19,17-19C186.24,233.26,192.7,240.8,192.7,251.51Zm-28.39.59c0,7.71,4.23,14.61,11.67,14.61s11.72-6.8,11.72-15c0-7.17-3.8-14.66-11.67-14.66S164.31,244.18,164.31,252.1Z"/><path class="cls-1" d="M210.33,233.85h4.72v17.39h.16c1-1.39,2-2.67,2.88-3.85l11.18-13.54h5.86l-13.24,15.31,14.27,20.76h-5.59l-12-17.71-3.47,4v13.75h-4.72Z"/><path class="cls-1" d="M244.46,233.85v36.07h-4.72V233.85Z"/><path class="cls-1" d="M283.54,254.08c-.27-5-.59-11.08-.54-15.58h-.16c-1.25,4.23-2.77,8.73-4.62,13.71l-6.46,17.5h-3.58l-5.91-17.18c-1.74-5.09-3.21-9.74-4.24-14h-.11c-.1,4.5-.38,10.55-.7,15.95l-1,15.47h-4.5l2.55-36.07h6l6.24,17.45c1.52,4.44,2.77,8.4,3.69,12.15h.17c.92-3.64,2.22-7.6,3.85-12.15l6.51-17.45h6l2.28,36.07h-4.62Z"/><path class="cls-1" d="M301.07,233.85v36.07h-4.72V233.85Z"/><path class="cls-1" d="M315.23,258.58l-3.8,11.34h-4.88L319,233.85h5.7l12.48,36.07h-5.05l-3.9-11.34Zm12-3.64-3.58-10.39c-.82-2.35-1.36-4.49-1.9-6.58h-.11c-.55,2.14-1.14,4.33-1.85,6.53l-3.58,10.44Z"/><path class="cls-1" d="M360,258.58l-3.8,11.34h-4.88l12.43-36.07h5.69l12.49,36.07h-5.05l-3.91-11.34Zm12-3.64-3.59-10.39c-.81-2.35-1.35-4.49-1.9-6.58h-.1c-.55,2.14-1.15,4.33-1.85,6.53l-3.58,10.44Z"/><path class="cls-1" d="M387.25,234.33a46.21,46.21,0,0,1,8.63-.75c4.72,0,7.76.8,10,2.62a7.52,7.52,0,0,1,3,6.37c0,3.48-2.34,6.53-6.19,7.92v.11c3.47.86,7.55,3.69,7.55,9a9.63,9.63,0,0,1-3.1,7.22c-2.55,2.3-6.67,3.38-12.64,3.38a56.59,56.59,0,0,1-7.33-.43ZM392,249.1h4.29c5,0,7.92-2.57,7.92-6,0-4.23-3.25-5.88-8-5.88a20.62,20.62,0,0,0-4.18.32Zm0,17.29a25.49,25.49,0,0,0,4,.22c4.89,0,9.39-1.77,9.39-7,0-4.92-4.28-7-9.44-7H392Z"/><path class="cls-1" d="M422.58,258.58l-3.8,11.34h-4.89l12.43-36.07H432l12.49,36.07h-5.05l-3.91-11.34Zm12-3.64L431,244.55c-.81-2.35-1.36-4.49-1.9-6.58H429c-.54,2.14-1.14,4.33-1.84,6.53l-3.59,10.44Z"/><path class="cls-1" d="M449.88,234.33a68.17,68.17,0,0,1,10-.75c6.78,0,11.61,1.55,14.81,4.49s5.16,7.12,5.16,13-1.85,10.7-5.27,14-9.06,5.2-16.17,5.2a79,79,0,0,1-8.57-.43Zm4.72,31.9a30.62,30.62,0,0,0,4.77.27c10.1,0,15.58-5.57,15.58-15.31.06-8.51-4.83-13.92-14.82-13.92a27.75,27.75,0,0,0-5.53.48Z"/><path class="cls-1" d="M490.74,233.85v36.07H486V233.85Z"/><polygon class="cls-2" points="254.04 83.03 119.14 219 395.63 219 254.04 83.03"/><polygon class="cls-2" points="257.91 416.89 385.69 288.09 123.79 288.09 257.91 416.89"/><polygon class="cls-3" points="258.78 473.25 286.9 444.9 287 445 258.88 473.35 258.78 473.25"/><polygon class="cls-1" points="286.9 444.73 258.6 473.25 258.88 473.52 287.18 445 286.9 444.73 286.9 444.73"/><polygon class="cls-3" points="80.49 288.21 94.17 288.21 243.43 431.31 236.79 438 80.49 288.21"/><path class="cls-1" d="M94.07,288.34l149.18,143-6.47,6.51L80.8,288.34H94.07m.1-.25h-14L236.79,438.17l6.81-6.87L94.17,288.09Z"/><polygon class="cls-3" points="109.65 288.21 123.79 288.21 257.73 416.89 251 423.68 109.65 288.21"/><path class="cls-1" d="M123.69,288.34,257.55,416.89,251,423.5,110,288.34h13.73m.1-.25H109.34L251,423.85l6.91-7L123.79,288.09Z"/><polygon class="cls-3" points="94.48 288.21 109.34 288.21 250.82 423.85 243.6 431.13 94.48 288.21"/><path class="cls-1" d="M109.24,288.34l141.4,135.52-7,7.09L94.79,288.34h14.45m.1-.25H94.17L243.6,431.3l7.4-7.45L109.34,288.09Z"/><polygon class="cls-3" points="66.1 288.21 80.18 288.21 236.61 438.18 229.61 445.23 66.1 288.21"/><path class="cls-1" d="M80.08,288.34,236.43,438.18l-6.82,6.88L66.41,288.34H80.08m.1-.25H65.79L229.61,445.41l7.18-7.24L80.18,288.09Z"/><path class="cls-3" d="M439.45,218.87l-164-157.23,6.9-7,171,164.19ZM225,55l28.12-28.35h0L225.05,55Z"/><path class="cls-1" d="M282.35,54.85,453,218.75H439.55L275.62,61.64l6.73-6.79M253.16,26.48,224.86,55l.19.18,28.29-28.5,29,27.84-7.07,7.12L439.45,219h14.18L253.16,26.48Z"/><polygon class="cls-3" points="395.63 218.88 254.22 83.02 261.05 76.14 409.98 218.88 395.63 218.88"/><path class="cls-1" d="M261.05,76.31,409.67,218.75H395.73L254.4,83l6.65-6.71m0-.35L254,83,395.63,219H410.3L261.05,76Z"/><polygon class="cls-3" points="410.3 218.88 261.23 75.96 267.87 69.27 423.97 218.88 410.3 218.88"/><path class="cls-1" d="M267.87,69.44,423.66,218.75H410.4L261.41,76l6.46-6.52m0-.35L261.05,76,410.3,219h14L267.87,69.09Z"/><polygon class="cls-3" points="424.28 218.88 268.04 69.09 275.26 61.81 439.14 218.88 424.28 218.88"/><path class="cls-1" d="M275.26,62,438.83,218.75H424.38L268.22,69.09l7-7.1m0-.35-7.39,7.45L424.28,219h15.17L275.26,61.64Z"/><polygon class="cls-1" points="61.85 217.99 225.67 54.43 254.77 82.11 118.66 217.99 61.85 217.99"/><path class="cls-1" d="M225.67,54.6l28.92,27.51-136,135.75H62.15L225.67,54.6m0-.34L61.54,218.11h57.17l136.23-136L225.67,54.26Z"/><polygon class="cls-1" points="225.23 55.18 253.34 26.85 282.15 54.52 254.04 82.85 225.23 55.18"/><path class="cls-1" d="M253.34,27,282,54.52l-6.71,6.77-.33-.32-.35.36.32.31-7,7.1-.27-.26-.35.36.27.26-6.64,6.69,0,0,0,0L254,82.67,225.41,55.18,253.34,27m0-.35-28.29,28.5L254,83l7-7.07-.15-.14.15.14,6.82-6.87-.45-.43.45.43,7.39-7.45-.51-.49.51.49,7.07-7.12-29-27.84Z"/><polygon class="cls-1" points="258.08 417.56 384.56 287.29 440.25 287.32 286.62 445.57 258.08 417.56"/><path class="cls-1" d="M440,287.45,286.62,445.39l-28.36-27.83L384.58,287.45H440m.59-.25H384.47L257.91,417.57l28.71,28.17L440.54,287.2Z"/><polygon class="cls-1" points="229.6 445.42 258.59 473.26 258.6 473.25 229.61 445.41 229.6 445.42"/><polygon class="cls-1" points="229.61 445.41 229.6 445.42 258.59 473.26 258.6 473.25 229.61 445.41 229.61 445.41"/><polygon class="cls-1" points="229.79 445.41 236.79 438.35 238.6 440.08 238.77 439.9 236.97 438.17 243.61 431.48 245.11 432.92 245.28 432.74 243.78 431.3 257.91 417.06 286.72 444.73 258.6 473.07 229.79 445.41"/><path class="cls-1" d="M257.91,417.24l28.63,27.49L258.6,472.9,230,445.41l6.82-6.89,1.72,1.65.35-.36-1.72-1.64,6.47-6.52L245,433l.34-.36L244,431.3l7-7.1,1.36,1.3.35-.36-1.35-1.29,6.55-6.61m0-.35-6.91,7,1.53,1.47L251,423.85l-7.4,7.45,1.6,1.53-1.6-1.53-6.81,6.87,1.9,1.82-1.9-1.82-7.18,7.24,29,27.84,28.3-28.52-29-27.84Z"/></svg>